<svg width="444" height="90" viewBox="0 0 444 90" fill="none" xmlns="http://www.w3.org/2000/svg">
<path d="M3.88 73.8L31 39.48C31 39.4 31.04 39.36 31.12 39.36C31.12 39.28 31.08 39.24 31 39.24H6.04C4.44 39.24 3.08 38.68 1.96 37.56C0.840001 36.36 0.280001 34.96 0.280001 33.36C0.280001 31.76 0.840001 30.4 1.96 29.28C3.08 28.16 4.44 27.6 6.04 27.6H44.92C46.52 27.6 47.88 28.16 49 29.28C50.12 30.4 50.68 31.76 50.68 33.36C50.68 37.2 49.48 40.68 47.08 43.8L19.96 78.12C19.96 78.2 19.92 78.24 19.84 78.24C19.84 78.32 19.88 78.36 19.96 78.36H44.92C46.52 78.36 47.88 78.96 49 80.16C50.12 81.28 50.68 82.64 50.68 84.24C50.68 85.84 50.12 87.2 49 88.32C47.88 89.44 46.52 90 44.92 90H6.04C4.44 90 3.08 89.44 1.96 88.32C0.840001 87.2 0.280001 85.84 0.280001 84.24C0.280001 80.4 1.48 76.92 3.88 73.8ZM62.6341 90C60.7941 90 59.1941 89.32 57.8341 87.96C56.4741 86.6 55.7941 85 55.7941 83.16V6.84C55.7941 5 56.4741 3.4 57.8341 2.04C59.1941 0.679994 60.7941 -7.15256e-06 62.6341 -7.15256e-06H65.0341C66.8741 -7.15256e-06 68.4741 0.679994 69.8341 2.04C71.1941 3.4 71.8741 5 71.8741 6.84V53.04C71.8741 53.12 71.9141 53.16 71.9941 53.16H72.1141L90.3541 32.64C93.3141 29.28 97.0741 27.6 101.634 27.6H106.674C107.954 27.6 108.834 28.2 109.314 29.4C109.874 30.6 109.714 31.68 108.834 32.64L86.8741 56.88C86.4741 57.36 86.4741 57.88 86.8741 58.44L109.074 84.84C109.954 85.88 110.074 87 109.434 88.2C108.874 89.4 107.954 90 106.674 90H101.634C97.0741 90 93.3541 88.24 90.4741 84.72L72.1141 62.52C72.1141 62.44 72.0741 62.4 71.9941 62.4C71.9141 62.4 71.8741 62.44 71.8741 62.52V83.16C71.8741 85 71.1941 86.6 69.8341 87.96C68.4741 89.32 66.8741 90 65.0341 90H62.6341Z" fill="#262626"/>
<path d="M178.851 2.4C180.691 2.4 182.291 3.08 183.651 4.43999C185.011 5.79999 185.691 7.4 185.691 9.24V83.16C185.691 85 185.011 86.6 183.651 87.96C182.291 89.32 180.691 90 178.851 90H169.731C165.171 90 161.891 87.96 159.891 83.88L139.131 42.12C139.131 42.04 139.091 42 139.011 42C138.931 42 138.891 42.04 138.891 42.12V83.16C138.891 85 138.211 86.6 136.851 87.96C135.491 89.32 133.891 90 132.051 90H122.931C121.091 90 119.491 89.32 118.131 87.96C116.771 86.6 116.091 85 116.091 83.16V9.24C116.091 7.4 116.771 5.79999 118.131 4.43999C119.491 3.08 121.091 2.4 122.931 2.4H132.051C136.611 2.4 139.891 4.44 141.891 8.52L162.651 50.28C162.651 50.36 162.691 50.4 162.771 50.4C162.851 50.4 162.891 50.36 162.891 50.28V9.24C162.891 7.4 163.571 5.79999 164.931 4.43999C166.291 3.08 167.891 2.4 169.731 2.4H178.851Z" fill="#1CC700"/>
<path d="M216.722 2.4C218.562 2.4 220.162 3.08 221.522 4.43999C222.882 5.79999 223.562 7.4 223.562 9.24V83.16C223.562 85 222.882 86.6 221.522 87.96C220.162 89.32 218.562 90 216.722 90H204.002C202.162 90 200.562 89.32 199.202 87.96C197.842 86.6 197.162 85 197.162 83.16V9.24C197.162 7.4 197.842 5.79999 199.202 4.43999C200.562 3.08 202.162 2.4 204.002 2.4H216.722Z" fill="#00A4EA"/>
<path d="M284.611 2.4C286.451 2.4 288.051 3.08 289.411 4.43999C290.771 5.79999 291.451 7.4 291.451 9.24V14.76C291.451 16.6 290.771 18.2 289.411 19.56C288.051 20.92 286.451 21.6 284.611 21.6H260.131C259.411 21.6 259.051 21.92 259.051 22.56V37.32C259.051 38.04 259.411 38.4 260.131 38.4H282.211C284.051 38.4 285.651 39.08 287.011 40.44C288.371 41.8 289.051 43.4 289.051 45.24V49.56C289.051 51.4 288.371 53 287.011 54.36C285.651 55.72 284.051 56.4 282.211 56.4H260.131C259.411 56.4 259.051 56.76 259.051 57.48V83.16C259.051 85 258.371 86.6 257.011 87.96C255.651 89.32 254.051 90 252.211 90H241.891C240.051 90 238.451 89.32 237.091 87.96C235.731 86.6 235.051 85 235.051 83.16V9.24C235.051 7.4 235.731 5.79999 237.091 4.43999C238.451 3.08 240.051 2.4 241.891 2.4H284.611Z" fill="#D900EC"/>
<path d="M359.681 2.4C361.521 2.4 363.121 3.08 364.481 4.43999C365.841 5.79999 366.521 7.4 366.521 9.24V15.36C366.521 17.2 365.841 18.8 364.481 20.16C363.121 21.52 361.521 22.2 359.681 22.2H345.041C344.321 22.2 343.961 22.56 343.961 23.28V83.16C343.961 85 343.281 86.6 341.921 87.96C340.641 89.32 339.081 90 337.241 90H326.201C324.361 90 322.761 89.32 321.401 87.96C320.121 86.6 319.481 85 319.481 83.16V23.28C319.481 22.56 319.121 22.2 318.401 22.2H303.761C301.921 22.2 300.321 21.52 298.961 20.16C297.601 18.8 296.921 17.2 296.921 15.36V9.24C296.921 7.4 297.601 5.79999 298.961 4.43999C300.321 3.08 301.921 2.4 303.761 2.4H359.681Z" fill="#E90000"/>
<path d="M439.095 2.4C440.615 2.4 441.775 3.08 442.575 4.43999C443.455 5.79999 443.535 7.16 442.815 8.52L418.455 56.64C418.215 57.04 418.095 57.72 418.095 58.68V83.16C418.095 85 417.415 86.6 416.055 87.96C414.695 89.32 413.095 90 411.255 90H400.215C398.375 90 396.775 89.32 395.415 87.96C394.135 86.6 393.495 85 393.495 83.16V58.68C393.495 57.88 393.335 57.2 393.015 56.64L368.655 8.52C367.935 7.16 367.975 5.79999 368.775 4.43999C369.575 3.08 370.775 2.4 372.375 2.4H385.935C387.935 2.4 389.775 3 391.455 4.2C393.135 5.32 394.335 6.84 395.055 8.75999L405.855 38.28C405.855 38.36 405.895 38.4 405.975 38.4C406.055 38.4 406.095 38.36 406.095 38.28L416.895 8.75999C417.615 6.84 418.775 5.32 420.375 4.2C422.055 3 423.935 2.4 426.015 2.4H439.095Z" fill="#FB8700"/>
</svg>
